<?xml version="1.0" encoding="UTF-8"?>
<svg id="Calque_1" data-name="Calque 1" xmlns="http://www.w3.org/2000/svg" viewBox="0 0 63 63">
  <defs>
    <style>
      .cls-1 {
        fill: #ee742f;
        stroke: #ee742f;
        stroke-miterlimit: 10;
        stroke-width: .69px;
      }

      .cls-2 {
        fill: #fcd5ab;
      }
    </style>
  </defs>
  <rect class="cls-2" x="0" y="0" width="63" height="63" rx="6" ry="6"/>
  <path class="cls-1" d="M14.23,11.96c-.76,0-1.47.26-1.97.77s-.75,1.22-.75,1.96v20.91c0,.74.25,1.44.75,1.95.5.5,1.21.76,1.96.78h1.83v6.36c0,.35.23.69.55.83s.73.07.98-.18l7.45-7.02h18.27c.76,0,1.47-.27,1.97-.78s.75-1.21.75-1.95V14.69c0-.74-.24-1.45-.74-1.96-.5-.51-1.23-.77-1.99-.77-9.57,0-19.51,0-29.08,0h0ZM14.23,13.78c9.57,0,19.51,0,29.08,0,.37,0,.56.1.68.23s.23.32.23.68v20.91c0,.36-.1.55-.23.68-.12.13-.31.23-.68.23h-18.63c-.23,0-.46.09-.62.24l-6.19,5.82v-5.16c0-.48-.43-.91-.91-.91h-2.73c-.37-.01-.57-.12-.7-.24-.13-.13-.21-.31-.21-.67V14.69c0-.36.1-.55.23-.68.12-.13.31-.23.68-.23ZM50.48,18.77c-.44.05-.81.46-.81.91v21.37c0,.36-.09.53-.21.65s-.33.24-.72.26h-3.15c-.48,0-.91.43-.91.91v5.16l-6.19-5.82c-.17-.16-.4-.24-.62-.24h-11.81c-.48,0-.92.43-.92.91s.44.92.92.91h11.46l7.45,7.02c.26.24.66.31.98.18s.55-.48.55-.83v-6.36h2.27s.02,0,.03,0c.74-.03,1.45-.28,1.95-.78.5-.5.75-1.21.75-1.95v-21.37c0-.51-.5-.96-1.01-.91Z"/>
</svg>