<?xml version="1.0" encoding="UTF-8"?>
<svg id="Calque_1" data-name="Calque 1" xmlns="http://www.w3.org/2000/svg" viewBox="0 0 63 63">
  <defs>
    <style>
      .cls-1 {
        fill: #ac1268;
      }

      .cls-2 {
        fill: #f7cae0;
      }
    </style>
  </defs>
  <rect class="cls-2" x="0" y="0" width="63" height="63" rx="6" ry="6"/>
  <path class="cls-1" d="M39.21,29.68c-.55,0-1-.45-1-1s.45-1,1-1h2.82v-2.82c0-.55.45-1,1-1s1,.45,1,1v2.82h2.82c.55,0,1,.45,1,1s-.45,1-1,1h-2.82v2.82c0,.55-.45,1-1,1s-1-.45-1-1v-2.82h-2.82ZM18.57,33.79c.51-.21,1.09.03,1.31.53s-.03,1.09-.53,1.31c-.98.41-2.03.56-3.05.44-.41-.05-.83-.14-1.22-.28l.07.25c.18.56.5,1.07.93,1.48s.96.71,1.52.87c.56.16,1.17.19,1.75.07.54-.11,1.07.23,1.18.77.04.22.02.43-.07.62-.15.33-.19.69-.13,1.03.06.34.22.66.47.92.25.26.57.42.91.49.34.06.7.03,1.03-.12.5-.22,1.1,0,1.32.51.07.16.1.33.08.49-.04.46.08.89.32,1.25s.6.63,1.03.76c.44.13.89.1,1.29-.06.4-.16.74-.46.96-.86.26-.48.87-.66,1.35-.4s.66.87.4,1.35c-.09.16-.19.32-.3.46.43.25.86.5,1.29.74l.74.42v-15.53c-.19-.64-.54-1.21-.98-1.67l-.04-.04c-.5-.5-1.13-.87-1.84-1.07-.53-.14-.85-.69-.7-1.23.14-.53.69-.85,1.23-.7.88.24,1.67.66,2.34,1.23v-4.72c-.39-1.46-.94-2.96-1.89-3.89-.9-.88-2.26-1.27-4.38-.62-.46.13-.97-.07-1.19-.52-.4-.8-1-1.46-1.74-1.92-.73-.46-1.59-.71-2.5-.71s-1.76.26-2.49.71c-.26.16-.5.34-.72.55.98.16,1.93.53,2.8,1.09.46.3.59.92.29,1.38-.3.46-.92.59-1.38.29-.83-.54-1.77-.83-2.71-.86-.95-.04-1.91.18-2.78.64-.87.47-1.57,1.15-2.06,1.97-.49.82-.76,1.76-.77,2.75,0,.98.26,1.93.74,2.75.48.82,1.18,1.51,2.04,1.98.34.19.55.57.51.98-.07.7.04,1.4.32,2.03.27.61.7,1.16,1.25,1.58l.06.05c.56.4,1.21.65,1.88.73.68.08,1.39-.01,2.04-.29h0ZM27.49,47c-.8.31-1.7.37-2.56.11-.89-.27-1.63-.83-2.12-1.56-.25-.37-.44-.79-.55-1.23-.31.02-.62,0-.92-.06-.73-.14-1.42-.5-1.96-1.05-.55-.56-.89-1.25-1.02-1.98-.04-.23-.06-.46-.05-.7-.43-.02-.85-.09-1.25-.21-.87-.25-1.68-.71-2.35-1.36-.67-.65-1.17-1.44-1.45-2.3-.22-.67-.32-1.39-.27-2.11-.63-.57-1.13-1.27-1.47-2.03-.33-.75-.51-1.56-.51-2.39-.93-.63-1.7-1.45-2.26-2.4-.66-1.12-1.02-2.42-1.02-3.77,0-1.35.38-2.65,1.05-3.76.67-1.12,1.64-2.06,2.82-2.7.69-.37,1.43-.63,2.17-.76.56-.94,1.32-1.71,2.22-2.27,1.05-.65,2.27-1.02,3.55-1.02s2.51.37,3.55,1.02c.82.51,1.52,1.19,2.06,2.02,2.54-.57,4.31.07,5.59,1.31.67.65,1.17,1.46,1.57,2.33.84-1.56,1.99-2.9,3.36-3.95,2.09-1.61,4.7-2.54,7.48-2.54s5.39.93,7.48,2.54c2.08,1.6,3.66,3.86,4.39,6.53l.03.13c.93,5.28-.94,9.92-4.99,14.31-3.91,4.23-9.88,8.21-17.31,12.27-.32.18-.69.18-1,0-.79-.43-1.54-.85-2.22-1.24-.7-.4-1.38-.79-2.02-1.17h0ZM26.38,37.97c-.21.06-.41.14-.6.25l-.05.03c-.43.26-.79.65-1.02,1.13-.24.5-.84.71-1.33.47-.5-.24-.71-.84-.47-1.33.4-.84,1.04-1.53,1.81-1.99l.06-.04c.45-.26.94-.44,1.45-.54-.23-.84-.66-1.63-1.27-2.28-.38-.4-.35-1.03.05-1.41s1.03-.35,1.41.05c.85.9,1.44,1.99,1.75,3.14.12.43.19.87.23,1.31v.02s0,.03,0,.03v.02s0,0,0,0v.03s0,0,0,0c.05.72,0,1.45-.18,2.18-.13.54-.66.87-1.2.75s-.87-.66-.75-1.2c.05-.2.08-.41.11-.61h0ZM20.36,25.95c-.36.11-.69.29-.98.52-.35.27-.64.62-.85,1.01-.21.4-.33.83-.36,1.27-.03.44.04.89.2,1.31.19.52-.07,1.09-.58,1.29-.52.19-1.09-.07-1.29-.58-.26-.69-.37-1.42-.32-2.13.04-.72.24-1.43.58-2.08.34-.64.8-1.19,1.35-1.63-.08-.07-.16-.14-.24-.21-.62-.57-1.1-1.3-1.38-2.13-.17-.52.11-1.09.63-1.26.52-.17,1.09.11,1.26.63.17.5.46.94.83,1.28.37.34.84.59,1.35.71h.03c.5.12,1.02.1,1.5-.03.49-.14.94-.4,1.32-.77.39-.39,1.02-.39,1.41,0,.39.39.39,1.02,0,1.41-.62.62-1.37,1.05-2.19,1.28-.73.21-1.51.25-2.27.11h0ZM33.23,46.85c6.58-3.69,11.86-7.29,15.35-11.07,3.6-3.9,5.28-7.99,4.49-12.57-.61-2.23-1.93-4.12-3.66-5.45-1.75-1.34-3.94-2.12-6.27-2.12s-4.52.78-6.27,2.12c-1.72,1.32-3.02,3.18-3.64,5.37v23.72Z"/>
</svg>