<?xml version="1.0" encoding="UTF-8"?>
<svg id="Calque_1" data-name="Calque 1" xmlns="http://www.w3.org/2000/svg" viewBox="0 0 63 63">
  <defs>
    <style>
      .cls-1 {
        fill: #fcd5ab;
      }

      .cls-2 {
        fill: #ee742f;
      }
    </style>
  </defs>
  <rect class="cls-1" x="0" y="0" width="63" height="63" rx="6" ry="6"/>
  <g>
    <path class="cls-2" d="M32.31,22.92c0,.74.6,1.34,1.34,1.34,3.11,0,5.63,2.53,5.63,5.63,0,.74.6,1.34,1.34,1.34s1.34-.6,1.34-1.34c0-4.59-3.73-8.31-8.31-8.31-.74,0-1.34.6-1.34,1.34Z"/>
    <path class="cls-2" d="M45.99,29.89c0,.74.6,1.34,1.34,1.34s1.34-.6,1.34-1.34c0-8.28-6.74-15.02-15.02-15.02-.74,0-1.34.6-1.34,1.34s.6,1.34,1.34,1.34c6.8,0,12.34,5.54,12.34,12.34Z"/>
    <path class="cls-2" d="M36.56,50.44c2.88,1.01,5.68,1.66,8.57,1.99.25.03.5.04.75.04,1.6,0,3.17-.59,4.38-1.67,1.41-1.26,2.21-3.05,2.21-4.93v-6.34c0-1.92-1.43-3.54-3.34-3.78l-6.46-.81c-1.09-.13-2.19.2-3.02.94l-2.67,2.39c-.96.86-2.39.98-3.48.28-1.45-.92-8.13-7.6-9.04-9.04-.69-1.09-.58-2.52.28-3.48l2.39-2.67c.74-.82,1.08-1.92.94-3.02l-.81-6.46c-.24-1.9-1.86-3.34-3.78-3.34h-6.34c-1.88,0-3.68.8-4.93,2.21-1.25,1.4-1.85,3.27-1.63,5.13.44,3.9,1.57,7.16,2.55,10.03,3.19,9.3,13.27,18.98,23.43,22.53h0ZM14.21,14.53c.75-.84,1.81-1.31,2.93-1.31h6.34c.57,0,1.05.42,1.12.99l.81,6.46c.04.32-.06.65-.28.89l-2.39,2.67c-1.66,1.85-1.88,4.61-.55,6.71,1.11,1.75,8.12,8.76,9.87,9.87,2.1,1.33,4.86,1.11,6.71-.55l2.67-2.39c.24-.21.57-.32.89-.28l6.46.81c.56.07.99.55.99,1.12v6.34c0,1.12-.48,2.19-1.31,2.93-.84.75-1.92,1.09-3.04.97-2.68-.31-5.3-.92-7.99-1.86-9.46-3.3-18.83-12.28-21.78-20.87-.95-2.75-2.01-5.86-2.43-9.47-.13-1.12.21-2.2.97-3.04h0Z"/>
  </g>
</svg>