<?xml version="1.0" encoding="UTF-8"?>
<svg id="Calque_1" data-name="Calque 1" xmlns="http://www.w3.org/2000/svg" viewBox="0 0 63 63">
  <defs>
    <style>
      .cls-1 {
        fill: #374395;
      }

      .cls-2 {
        fill: #a8dcf8;
      }
    </style>
  </defs>
  <rect class="cls-2" y="0" width="63" height="63" rx="6" ry="6"/>
  <path class="cls-1" d="M8.21,42.59h46.36c.42,0,.76.34.76.76v5.26c0,.42-.34.76-.76.76H8.21c-.42,0-.76-.34-.76-.76v-5.26c0-.42.34-.76.76-.76h0ZM48.42,29.31c-4.17-4.43-2.8-6.45-1.23-8.73,1.01-1.47,2.11-3.08,1.07-5.92-.14-.39.06-.83.45-.97.29-.11.61-.02.81.19,5.09,4.68,3.18,7.38,1.33,9.99-1.02,1.44-2.03,2.86-1.19,4.59.18.38.02.83-.36,1.01-.3.15-.66.07-.88-.16ZM48.44,21.43c-.93,1.36-1.78,2.6-.54,4.75.26-1.15.98-2.16,1.71-3.19,1.21-1.7,2.44-3.45.6-6.1,0,1.94-.92,3.28-1.78,4.53h0ZM51.17,41.28c-4.17-4.43-2.8-6.45-1.23-8.73,1.01-1.47,2.11-3.08,1.07-5.92-.14-.39.06-.83.45-.97.29-.11.61-.02.81.19,5.09,4.68,3.18,7.38,1.33,9.99-1.02,1.44-2.03,2.86-1.2,4.59.18.38.02.83-.36,1.01-.3.15-.66.07-.88-.16h0ZM51.19,33.4c-.93,1.36-1.78,2.6-.54,4.75.26-1.15.98-2.16,1.71-3.19,1.21-1.7,2.44-3.45.6-6.1,0,1.94-.92,3.28-1.78,4.53h0ZM51.81,44.1v3.74h2v-3.74h-2ZM50.29,47.85v-3.74h-27.9v3.74h27.9ZM20.87,47.85v-3.74h-11.91v3.74h11.91Z"/>
</svg>