<?xml version="1.0" encoding="UTF-8"?>
<svg id="Calque_1" data-name="Calque 1" xmlns="http://www.w3.org/2000/svg" viewBox="0 0 63 63">
  <defs>
    <style>
      .cls-1, .cls-2 {
        fill: #137540;
      }

      .cls-2 {
        stroke: #137540;
        stroke-miterlimit: 10;
        stroke-width: .5px;
      }

      .cls-3 {
        fill: #bfdebd;
      }
    </style>
  </defs>
  <rect class="cls-3" y="0" width="63" height="63" rx="6" ry="6"/>
  <g>
    <path class="cls-1" d="M45.98,43.81c-.21-1.65-.63-3.52.65-4.87,2.41-2.68,7.84-9.72,6.05-17.13-2.77-12.17-23.7-17.46-32.7-10.09-2.93,2.18-4.77,5.74-5.85,9.95-1,1.52-1.43,3.39-.45,5.03l.66,1.17-3.83,4.28c-.46.52-.64,1.24-.47,1.92.16.68.64,1.23,1.29,1.5l1.54.6-1,1.39c-.21.24-.15.64-.16.93-.06.47.73,1.07.98,1.4h0c-.33.26-.52.65-.53,1.06,0,.42.18.81.5,1.08l.87.66c-1.35,2.84,1.07,6.23,4.49,5.96l6.18-.37c1.38-.08,2.67.71,3.22,1.99l1.44,3.36c.33.77,1.16,1.19,1.97.99l14.36-3.52c.71-.18,1.3-.65,1.64-1.29.34-.65.39-1.4.14-2.09-.46-1.26-.79-2.57-1-3.9h0ZM45.33,49.01c-.11.21-.31.36-.54.42l-14.36,3.52-1.44-3.37c-.83-1.93-2.79-3.14-4.89-3.02l-6.18.37c-2.3.16-3.75-2.03-2.72-3.81.28-.55.12-1.22-.37-1.6l-.8-.6h0c.28-.24.45-.57.48-.94.03-.36-.09-.72-.33-1l-.7-.76,1.01-1.41c.22-.27.15-.87.16-1.2,0-.35-.22-.67-.54-.8l-2.18-.85c-.13-.05-.23-.16-.27-.3-.03-.14,0-.28.1-.39l3.83-4.28h0c.49-.55.57-1.34.21-1.98l-.66-1.17c-.69-1.15-.18-2.35.47-3.38.14-.26.25-.54.32-.83.91-3.79,2.62-6.67,5.08-8.58,8.03-6.62,27.49-1.82,30,9.14,1.6,6.62-3.42,13.11-5.66,15.59-.9.98-1.37,2.27-1.33,3.6.09,2.35.54,4.68,1.34,6.89.09.24.07.5-.05.72h0Z"/>
    <path class="cls-2" d="M44.03,26.47c-.04-.13-.13-.24-.26-.29-1.08-.41-2.34-.59-3.64-.52,1.48-1.68,2.45-3.63,2.75-5.56.02-.13-.02-.27-.12-.37-.1-.1-.23-.14-.37-.12-2.18.34-4.38,1.54-6.2,3.36-.08.08-.16.17-.24.25.09-.68.13-1.38.13-2.09,0-3.19-.88-6.16-2.48-8.36-.08-.11-.21-.17-.34-.17s-.26.07-.34.18c-1.6,2.2-2.49,5.17-2.49,8.36,0,.71.05,1.41.13,2.09-.08-.08-.16-.17-.24-.25-1.82-1.82-4.03-3.02-6.2-3.36-.13-.02-.27.02-.37.12-.1.1-.14.23-.12.37.3,1.93,1.28,3.88,2.75,5.56-1.3-.07-2.57.1-3.64.52-.13.05-.22.16-.26.29-.04.13,0,.27.08.38,1.05,1.31,2.64,2.33,4.49,2.92-.75.36-1.41.79-1.92,1.27-.11.11-.16.27-.12.42.04.15.16.27.32.3.49.11,1.03.17,1.6.17.87,0,1.8-.13,2.74-.38,1.2-.32,2.29-.82,3.16-1.42v1.83c0,.23.19.42.42.42s.42-.19.42-.42v-1.83c.86.6,1.95,1.1,3.16,1.42.94.25,1.88.38,2.74.38.57,0,1.11-.06,1.6-.17.15-.04.28-.15.32-.3.04-.15,0-.31-.12-.42-.52-.48-1.17-.91-1.92-1.27,1.85-.59,3.44-1.62,4.49-2.92.09-.11.12-.25.08-.38h0ZM36.79,23.58c1.53-1.53,3.33-2.58,5.13-3-.43,1.79-1.5,3.63-3,5.13-1.39,1.39-3.08,2.42-4.74,2.9.65-1.1,1.15-2.36,1.47-3.71.34-.45.72-.89,1.14-1.32h0ZM33.25,13.78c1.26,1.98,1.98,4.62,1.98,7.35s-.71,5.38-1.98,7.36c-1.26-1.98-1.98-4.62-1.98-7.35s.71-5.38,1.98-7.36ZM29.72,23.58c.42.42.8.86,1.14,1.32.32,1.35.81,2.6,1.47,3.71-1.66-.48-3.34-1.5-4.74-2.9-1.5-1.5-2.57-3.34-3-5.13,1.8.43,3.6,1.48,5.13,3h0ZM27.3,26.62c1.35,1.27,2.89,2.19,4.45,2.7-1.24.21-2.63.14-3.98-.23-1.64-.44-3.11-1.27-4.14-2.32,1.11-.31,2.38-.36,3.67-.16h0ZM29.45,30.73c-1.03.28-2.07.39-2.98.34.56-.37,1.23-.7,1.96-.95.65.12,1.28.18,1.91.18.14,0,.28,0,.42,0-.42.17-.86.32-1.31.45h0ZM37.06,30.73c-.46-.12-.9-.27-1.31-.45.14,0,.28,0,.42,0,.62,0,1.26-.06,1.91-.18.73.26,1.4.58,1.96.95-.91.05-1.95-.06-2.98-.34h0ZM38.73,29.1c-1.35.36-2.74.43-3.99.23,1.57-.51,3.1-1.43,4.45-2.7,1.28-.2,2.56-.15,3.67.16-1.03,1.05-2.5,1.88-4.13,2.32Z"/>
  </g>
</svg>