<?xml version="1.0" encoding="UTF-8"?>
<svg id="Calque_1" data-name="Calque 1" xmlns="http://www.w3.org/2000/svg" viewBox="0 0 63 63">
  <defs>
    <style>
      .cls-1 {
        fill: #374395;
      }

      .cls-2 {
        fill: #a8dcf8;
      }
    </style>
  </defs>
  <rect class="cls-2" y="0" width="63" height="63" rx="6" ry="6"/>
  <path class="cls-1" d="M29.8,12.17c-.14-.27-.42-.44-.72-.44-.3,0-.58.16-.72.43l-3.04,5.57-5.57,3.04c-.26.15-.43.42-.43.72,0,.3.16.58.43.72l5.57,3.05,3.04,5.56c.14.26.42.43.72.43.3,0,.58-.16.72-.43l3.04-5.56,5.56-3.05c.26-.14.43-.42.43-.72,0-.3-.16-.58-.43-.72l-5.56-3.04-3.04-5.56ZM31.84,23.93c-.14.08-.25.19-.33.33l-2.44,4.45-2.43-4.45c-.08-.14-.19-.25-.33-.33l-4.45-2.43,4.45-2.44c.14-.08.25-.19.33-.32l2.43-4.46,2.43,4.46c.08.14.19.25.33.32l4.45,2.44-4.44,2.43ZM12.69,36.36c0,.3.16.58.43.72l3.62,1.98,1.98,3.62c.14.26.42.43.72.43.3,0,.58-.16.72-.43l2-3.62,3.62-1.98c.26-.14.43-.42.43-.72,0-.3-.16-.58-.43-.72l-3.62-1.98-1.98-3.62c-.15-.28-.45-.45-.77-.43-.3,0-.58.16-.72.43l-1.98,3.62-3.62,1.98c-.26.15-.41.43-.41.72ZM17.74,34.99c.14-.07.25-.19.32-.33l1.36-2.51,1.37,2.51c.08.14.19.25.33.33l2.51,1.37-2.51,1.37c-.14.08-.25.19-.33.32l-1.37,2.51-1.37-2.51c-.07-.14-.19-.25-.32-.32l-2.51-1.37,2.53-1.37ZM33.6,49.07c.22.4.72.54,1.12.33.14-.08.25-.19.33-.33l1.98-3.62,3.62-1.98c.26-.14.43-.42.43-.72,0-.3-.16-.58-.43-.72l-3.62-1.98-1.98-3.61c-.22-.4-.72-.54-1.12-.33-.14.08-.25.19-.33.33l-1.98,3.62-3.62,1.98c-.26.15-.43.42-.43.72,0,.3.16.58.43.72l3.62,1.98,1.98,3.61ZM32.63,41.38c.14-.08.25-.19.33-.33l1.37-2.51,1.37,2.51c.08.14.19.25.33.33l2.51,1.37-2.51,1.37c-.14.08-.25.19-.33.32l-1.37,2.51-1.37-2.51c-.08-.14-.19-.25-.33-.32l-2.51-1.37,2.51-1.37ZM50.77,28.31l-3.62-1.98-1.98-3.62c-.22-.4-.73-.54-1.13-.32-.14.08-.25.19-.32.32l-1.98,3.62-3.62,1.98c-.26.15-.43.42-.43.72,0,.3.16.58.43.72l3.62,1.98,1.98,3.61c.22.4.73.54,1.13.32.14-.08.25-.19.32-.32l1.98-3.62,3.62-1.98c.26-.14.43-.42.43-.72,0-.3-.17-.57-.43-.71ZM46.16,30.4c-.14.07-.25.19-.33.32l-1.37,2.51-1.37-2.51c-.08-.14-.19-.25-.33-.32l-2.51-1.37,2.51-1.37c.14-.08.25-.19.33-.33l1.37-2.51,1.37,2.51c.08.14.19.25.33.33l2.5,1.37-2.5,1.37ZM13.9,25.46v1.28h1.28c.45,0,.82.37.82.82s-.37.82-.82.82h-1.28v1.28c0,.45-.37.82-.82.82s-.82-.37-.82-.82v-1.26h-1.28c-.45,0-.82-.37-.82-.82s.37-.82.82-.82h1.28v-1.3c0-.45.37-.82.82-.82s.82.37.82.82ZM19.73,10.08v1.28h1.28c.45,0,.82.37.82.82s-.37.82-.82.82h-1.28v1.28c0,.45-.37.82-.82.82s-.82-.37-.82-.82v-1.24h-1.28c-.45,0-.82-.37-.82-.82s.37-.82.82-.82h1.28v-1.28c0-.45.37-.82.82-.82s.82.37.82.82v-.04ZM42.14,12.19v1.28h1.28c.45,0,.82.37.82.82s-.37.82-.82.82h-1.28v1.28c0,.45-.37.82-.82.82s-.82-.37-.82-.82v-1.24h-1.3c-.45,0-.82-.37-.82-.82s.37-.82.82-.82h1.28v-1.28c0-.45.37-.82.82-.82s.82.37.82.82l.02-.04ZM24.54,52.82v-1.23h-1.27c-.45,0-.82-.37-.82-.82s.37-.82.82-.82h1.28v-1.28c0-.45.37-.82.82-.82s.82.37.82.82v1.28h1.28c.45,0,.82.37.82.82s-.37.82-.82.82h-1.29v1.28c0,.45-.37.82-.82.82s-.82-.37-.82-.82v-.05ZM49.1,41.53v-1.28h-1.28c-.45,0-.82-.37-.82-.82s.37-.82.82-.82h1.28v-1.28c0-.45.37-.82.82-.82s.82.37.82.82h0v1.28h1.28c.45,0,.82.37.82.82s-.37.82-.82.82h-1.28v1.28c0,.45-.37.82-.82.82s-.82-.37-.82-.82Z"/>
</svg>