<?xml version="1.0" encoding="UTF-8"?>
<svg id="Calque_1" data-name="Calque 1" xmlns="http://www.w3.org/2000/svg" viewBox="0 0 63 63">
  <defs>
    <style>
      .cls-1 {
        fill: #ac1268;
        fill-rule: evenodd;
      }

      .cls-2 {
        fill: #f7cae0;
      }
    </style>
  </defs>
  <rect class="cls-2" y="0" width="63" height="63" rx="6" ry="6"/>
  <path class="cls-1" d="M42.02,29.74l-7.48-12.95c-.33-.56-.76-1-1.28-1.3h0c-.51-.3-1.11-.45-1.77-.45s-1.22.15-1.72.43c-.01,0-.03.02-.04.03-.52.3-.95.74-1.28,1.3l-7.48,12.95h0s-7.47,12.94-7.47,12.94c-.32.56-.48,1.16-.48,1.76s.15,1.17.46,1.71c0,.01.02.03.03.04.33.57.76,1.01,1.28,1.3.51.3,1.11.45,1.77.45h29.9c.65,0,1.26-.16,1.77-.45.51-.3.95-.74,1.28-1.3h0c.32-.56.48-1.15.48-1.75s-.16-1.2-.48-1.76l-7.44-12.89s-.02-.03-.03-.05h0ZM36.18,15.85l7.48,12.95s.02.04.03.05l7.45,12.9c.5.86.74,1.78.74,2.7s-.25,1.84-.74,2.7h0s0,0,0,0c-.49.85-1.17,1.53-1.97,1.99s-1.73.71-2.71.71h-29.9c-.98,0-1.9-.25-2.71-.71s-1.48-1.14-1.97-1.99c-.01-.02-.02-.04-.03-.06-.48-.84-.71-1.74-.71-2.65s.25-1.84.74-2.7l7.48-12.95h0s7.48-12.95,7.48-12.95c.49-.85,1.17-1.53,1.97-1.99.02-.01.04-.02.06-.03.79-.44,1.69-.68,2.65-.68s1.9.25,2.71.71h0s0,0,0,0c.8.46,1.48,1.14,1.97,1.99h0ZM32.3,41.81c.21.21.33.49.33.81s-.13.6-.33.81c-.21.21-.49.33-.81.33s-.6-.13-.81-.33c-.21-.21-.33-.49-.33-.81s.13-.6.33-.81c.21-.21.49-.33.81-.33s.6.13.81.33ZM31.5,39.58c.84,0,1.6.34,2.15.89.55.55.89,1.31.89,2.15s-.34,1.6-.89,2.15c-.55.55-1.31.89-2.15.89s-1.6-.34-2.15-.89c-.55-.55-.89-1.31-.89-2.15s.34-1.6.89-2.15,1.31-.89,2.15-.89ZM32.6,25.41c-.09,2.55-.23,6.81-.48,10.24-.02.27-.16.45-.33.53-.1.04-.2.07-.3.07s-.21-.02-.3-.07c-.17-.08-.3-.25-.32-.53-.24-3.34-.38-7.26-.46-9.81-.02-.65-.04-1.21-.06-1.62-.02-.53.24-.88.58-1.03.17-.08.36-.11.56-.11s.38.04.56.11c.35.15.61.49.59,1.03-.01.28-.02.71-.04,1.19h0ZM34.53,24.28c-.01.39-.03.76-.04,1.18-.09,2.61-.24,6.95-.48,10.31-.08,1.06-.67,1.76-1.43,2.11-.34.16-.71.24-1.09.24-.37,0-.75-.08-1.09-.24-.75-.35-1.34-1.05-1.41-2.11-.24-3.27-.37-7.27-.47-9.88-.02-.61-.04-1.14-.06-1.61-.05-1.44.71-2.38,1.72-2.83.41-.18.86-.27,1.31-.27.45,0,.9.09,1.31.27,1.01.44,1.78,1.38,1.72,2.83h0Z"/>
</svg>