<?xml version="1.0" encoding="UTF-8"?>
<svg id="Calque_1" data-name="Calque 1" xmlns="http://www.w3.org/2000/svg" viewBox="0 0 63 63">
  <defs>
    <style>
      .cls-1 {
        fill: #137540;
        fill-rule: evenodd;
      }

      .cls-2 {
        fill: #bfdebd;
      }
    </style>
  </defs>
  <rect class="cls-2" x="0" y="0" width="63" height="63" rx="6" ry="6"/>
  <path class="cls-1" d="M31.71,31.86l-18.5-5.69,18.5-5.69,18.5,5.69-18.5,5.69ZM43.46,39.93v-9.38l-11.42,3.52c-.21.06-.44.06-.65,0l-11.42-3.52v9.38c2.66,1.64,7.09,2.64,11.75,2.64s9.09-1,11.75-2.64ZM12.28,36.51c-.07.53-.54.9-1.07.86-.47.11-.94-.19-1.05-.67s.19-.94.67-1.05c.13-.03.26-.03.38,0h0c.53-.04,1,.33,1.07.86h0ZM54.29,25.11l-22.25-6.85c-.21-.06-.44-.06-.65,0l-22.25,6.85c-.58.18-.91.8-.73,1.38.11.35.38.62.73.73l.97.3v6.09c-1.59.46-2.52,2.12-2.06,3.72.29.99,1.06,1.77,2.06,2.06v2.44c.01.61.52,1.09,1.13,1.08.59-.01,1.07-.49,1.08-1.08v-2.44c1.59-.46,2.52-2.12,2.06-3.72-.29-.99-1.06-1.77-2.06-2.06v-5.41l5.44,1.67v10.65c0,.36.17.7.47.9,2.99,2.1,8.03,3.35,13.49,3.35s10.51-1.25,13.49-3.35c.3-.21.47-.54.47-.9v-10.65l8.62-2.65c.58-.18.91-.8.73-1.38-.11-.35-.38-.62-.73-.73h0Z"/>
</svg>