<?xml version="1.0" encoding="UTF-8"?>
<svg id="Calque_1" data-name="Calque 1" xmlns="http://www.w3.org/2000/svg" viewBox="0 0 63 63">
  <defs>
    <style>
      .cls-1 {
        fill: #fcd5ab;
      }

      .cls-2 {
        fill: #ee742f;
        stroke: #fcd5ab;
        stroke-miterlimit: 10;
        stroke-width: .5px;
      }
    </style>
  </defs>
  <rect class="cls-1" x="0" y="0" width="63" height="63" rx="6" ry="6"/>
  <path class="cls-2" d="M52.38,30.23c-.23-3.38-1.29-6.65-3.08-9.53-.54-.88-1.15-1.71-1.82-2.5-3.19-3.78-7.61-6.31-12.49-7.13h-.01c-.66-.1-1.3-.18-1.97-.22-.04-.01-.09-.02-.13-.01-.45-.03-.9-.04-1.36-.04-.42,0-.84.01-1.24.04-.08,0-.17,0-.25.01-.58.03-1.16.1-1.73.19h-.01c-4.97.77-9.49,3.31-12.73,7.16-.67.78-1.28,1.62-1.82,2.5-1.79,2.88-2.85,6.15-3.08,9.53-.04.49-.06.99-.06,1.5s.01,1,.06,1.5c.23,3.38,1.29,6.65,3.08,9.53.54.88,1.15,1.71,1.82,2.5,3.19,3.78,7.61,6.31,12.49,7.13h.01c.66.1,1.3.18,1.97.22.04.01.09.02.13.01.45.03.9.04,1.36.04.42,0,.84-.01,1.24-.04.08,0,.17,0,.25-.01.58-.03,1.16-.1,1.73-.19h.01c4.97-.77,9.49-3.31,12.73-7.16.67-.78,1.28-1.62,1.82-2.5,1.79-2.88,2.85-6.15,3.08-9.53.04-.49.06-.99.06-1.5s-.01-1-.06-1.5ZM49.39,30.23h-6c-.22-2.44-.7-4.84-1.44-7.18,1.52-.35,3.01-.77,4.49-1.27,1.69,2.52,2.7,5.43,2.95,8.45h0ZM39.14,39.85c-2.03-.34-4.09-.54-6.15-.61v-6.01h7.43c-.12,2.26-.56,4.49-1.29,6.63h0ZM23.98,39.82c-.7-2.14-1.16-4.35-1.38-6.6h7.4v6.01c-2.02.06-4.03.25-6.03.58h0ZM23.86,23.6c2.03.35,4.09.55,6.15.61v6.01h-7.43c.12-2.26.56-4.49,1.29-6.63h0ZM40.4,30.23h-7.4v-6.01c2.02-.06,4.03-.26,6.03-.6.7,2.15,1.16,4.36,1.38,6.61ZM44.42,19.3c-1.2.37-2.36.67-3.5.91-.75-1.8-1.67-3.52-2.75-5.14,2.36.95,4.49,2.39,6.25,4.23h0ZM33.52,13.9c1.82,2.04,3.31,4.36,4.4,6.87-1.63.26-3.27.42-4.92.46v-7.91c.18.19.36.37.52.58h0ZM30,13.52v7.7c-1.68-.05-3.35-.2-5.01-.45,1.21-2.52,2.79-4.85,4.68-6.91.12-.12.22-.24.33-.34h0ZM24.93,15.02c-1.15,1.62-2.15,3.36-2.96,5.17-1.18-.25-2.32-.57-3.4-.9,1.78-1.87,3.95-3.33,6.36-4.28h0ZM16.57,21.78c1.36.46,2.8.88,4.32,1.24-.75,2.34-1.19,4.76-1.32,7.21h-5.97c.24-3.02,1.26-5.94,2.96-8.45h0ZM13.61,33.22h6c.22,2.44.7,4.84,1.44,7.18-1.51.34-3,.77-4.47,1.27-1.7-2.51-2.72-5.43-2.96-8.45h0ZM18.58,44.15c1.11-.34,2.27-.66,3.5-.91.75,1.8,1.67,3.52,2.75,5.14-2.36-.95-4.49-2.39-6.25-4.23h0ZM29.48,49.55c-1.82-2.05-3.31-4.37-4.4-6.88,1.63-.24,3.27-.39,4.92-.45v7.91c-.18-.19-.36-.37-.52-.58h0ZM33,49.93v-7.7c1.67.06,3.34.21,5,.46-1.21,2.51-2.78,4.84-4.67,6.89-.12.12-.22.24-.33.34h0ZM38.07,48.43c1.16-1.62,2.14-3.35,2.95-5.17,1.11.24,2.24.54,3.41.9-1.78,1.87-3.95,3.33-6.36,4.28h0ZM46.44,41.67c-1.42-.49-2.87-.9-4.34-1.23.75-2.34,1.19-4.77,1.32-7.22h5.97c-.24,3.02-1.26,5.93-2.95,8.45h0Z"/>
</svg>