<?xml version="1.0" encoding="UTF-8"?>
<svg id="Calque_1" data-name="Calque 1" xmlns="http://www.w3.org/2000/svg" viewBox="0 0 63 63">
  <defs>
    <style>
      .cls-1 {
        fill: #137540;
        stroke: #137540;
        stroke-miterlimit: 10;
        stroke-width: .5px;
      }

      .cls-2 {
        fill: #bfdebd;
      }
    </style>
  </defs>
  <rect class="cls-2" y="0" width="63" height="63" rx="6" ry="6"/>
  <g>
    <path class="cls-1" d="M24.54,41.04h-8.24c-1.16,0-2.25-.46-3.08-1.29-.83-.83-1.29-1.93-1.29-3.08v-10.29c0-2.43,1.96-4.41,4.37-4.41h8.24c1.56,0,2.84,1.27,2.84,2.84,0,.92-.42,1.73-1.08,2.24.66.52,1.08,1.32,1.08,2.23s-.43,1.71-1.09,2.23c.66.52,1.09,1.33,1.09,2.23s-.43,1.71-1.09,2.23c.66.52,1.09,1.33,1.09,2.23,0,1.56-1.27,2.84-2.84,2.84h0ZM16.3,23.17c-1.75,0-3.17,1.44-3.17,3.2v10.29c0,1.72,1.45,3.17,3.17,3.17h8.24c.9,0,1.63-.73,1.63-1.63s-.73-1.63-1.63-1.63c-.33,0-.6-.27-.6-.6s.27-.6.6-.6c.9,0,1.63-.73,1.63-1.63s-.73-1.63-1.63-1.63c-.33,0-.6-.27-.6-.6s.27-.6.6-.6c.9,0,1.63-.73,1.63-1.63s-.73-1.63-1.63-1.63c-.33,0-.6-.27-.6-.6s.27-.6.6-.6c.93,0,1.63-.7,1.63-1.63s-.73-1.63-1.63-1.63h-8.24Z"/>
    <path class="cls-1" d="M26,41.04h-1.47c-.33,0-.6-.27-.6-.6s.27-.6.6-.6c.9,0,1.63-.73,1.63-1.63s-.73-1.63-1.63-1.63c-.33,0-.6-.27-.6-.6s.27-.6.6-.6c.9,0,1.63-.73,1.63-1.63s-.73-1.63-1.63-1.63c-.33,0-.6-.27-.6-.6s.27-.6.6-.6c.9,0,1.63-.73,1.63-1.63s-.73-1.63-1.63-1.63c-.33,0-.6-.27-.6-.6s.27-.6.6-.6c.93,0,1.63-.7,1.63-1.63s-.73-1.63-1.63-1.63c-.33,0-.6-.27-.6-.6s.27-.6.6-.6h1.47c2.41,0,4.37,1.98,4.37,4.41v10.29c0,2.41-1.96,4.37-4.37,4.37h0ZM26.28,35.97c.66.52,1.09,1.33,1.09,2.23,0,.54-.15,1.05-.42,1.48,1.28-.4,2.22-1.61,2.22-3.02v-10.29c0-1.43-.93-2.64-2.21-3.05.27.43.42.94.42,1.48,0,.92-.42,1.73-1.08,2.24.66.52,1.08,1.32,1.08,2.23s-.43,1.71-1.09,2.23c.66.52,1.09,1.33,1.09,2.23s-.43,1.71-1.09,2.23h0Z"/>
    <path class="cls-1" d="M26.25,32.87c-.33,0-.6-.27-.6-.6s.27-.6.6-.6c1.61,0,2.92-1.54,2.92-3.44,0-.33.27-.6.6-.6s.6.27.6.6c0,2.56-1.85,4.65-4.13,4.65h0Z"/>
    <path class="cls-1" d="M24.54,27.64h-5.37c-.33,0-.6-.27-.6-.6s.27-.6.6-.6h5.37c.33,0,.6.27.6.6s-.27.6-.6.6Z"/>
    <path class="cls-1" d="M24.54,32.1h-5.37c-.33,0-.6-.27-.6-.6s.27-.6.6-.6h5.37c.33,0,.6.27.6.6s-.27.6-.6.6Z"/>
    <path class="cls-1" d="M24.54,36.57h-5.37c-.33,0-.6-.27-.6-.6s.27-.6.6-.6h5.37c.33,0,.6.27.6.6s-.27.6-.6.6Z"/>
    <path class="cls-1" d="M46.66,41.04h-8.24c-1.56,0-2.84-1.27-2.84-2.84,0-.91.43-1.71,1.09-2.23-.66-.52-1.09-1.33-1.09-2.23s.43-1.71,1.09-2.23c-.66-.52-1.09-1.33-1.09-2.23s.43-1.71,1.09-2.23c-.66-.52-1.09-1.33-1.09-2.23,0-1.56,1.27-2.84,2.84-2.84h8.24c2.43,0,4.41,1.98,4.41,4.41v10.29c0,2.41-1.98,4.37-4.41,4.37h0ZM38.43,36.57c-.88,0-1.63.75-1.63,1.63s.75,1.63,1.63,1.63h8.24c1.76,0,3.2-1.42,3.2-3.17v-10.29c0-1.76-1.44-3.2-3.2-3.2h-8.24c-.88,0-1.63.75-1.63,1.63s.73,1.63,1.63,1.63c.33,0,.6.27.6.6s-.27.6-.6.6c-.88,0-1.63.75-1.63,1.63s.75,1.63,1.63,1.63c.33,0,.6.27.6.6s-.27.6-.6.6c-.88,0-1.63.75-1.63,1.63s.75,1.63,1.63,1.63c.33,0,.6.27.6.6s-.27.6-.6.6h0Z"/>
    <path class="cls-1" d="M38.43,41.04h-1.43c-2.43,0-4.41-1.96-4.41-4.37v-10.29c0-2.43,1.98-4.41,4.41-4.41h1.43c.33,0,.6.27.6.6s-.27.6-.6.6c-.88,0-1.63.75-1.63,1.63s.73,1.63,1.63,1.63c.33,0,.6.27.6.6s-.27.6-.6.6c-.88,0-1.63.75-1.63,1.63s.75,1.63,1.63,1.63c.33,0,.6.27.6.6s-.27.6-.6.6c-.88,0-1.63.75-1.63,1.63s.75,1.63,1.63,1.63c.33,0,.6.27.6.6s-.27.6-.6.6c-.88,0-1.63.75-1.63,1.63s.75,1.63,1.63,1.63c.33,0,.6.27.6.6s-.27.6-.6.6h0ZM36,23.33c-1.28.42-2.21,1.63-2.21,3.04v10.29c0,1.4.93,2.6,2.21,3.01-.26-.43-.41-.94-.41-1.48,0-.91.43-1.71,1.09-2.23-.66-.52-1.09-1.33-1.09-2.23s.43-1.71,1.09-2.23c-.66-.52-1.09-1.33-1.09-2.23s.43-1.71,1.09-2.23c-.66-.52-1.09-1.33-1.09-2.23,0-.54.15-1.04.41-1.47h0Z"/>
    <path class="cls-1" d="M36.75,32.87c-2.29,0-4.16-2.09-4.16-4.65,0-.33.27-.6.6-.6s.6.27.6.6c0,1.9,1.33,3.44,2.96,3.44.33,0,.6.27.6.6s-.27.6-.6.6h0Z"/>
    <path class="cls-1" d="M43.8,27.64h-5.37c-.33,0-.6-.27-.6-.6s.27-.6.6-.6h5.37c.33,0,.6.27.6.6s-.27.6-.6.6Z"/>
    <path class="cls-1" d="M43.8,32.1h-5.37c-.33,0-.6-.27-.6-.6s.27-.6.6-.6h5.37c.33,0,.6.27.6.6s-.27.6-.6.6Z"/>
    <path class="cls-1" d="M43.8,36.57h-5.37c-.33,0-.6-.27-.6-.6s.27-.6.6-.6h5.37c.33,0,.6.27.6.6s-.27.6-.6.6Z"/>
    <path class="cls-1" d="M23.46,23.17h-5.23c-.33,0-.6-.27-.6-.6v-9.28c0-.33.27-.6.6-.6h5.23c.33,0,.6.27.6.6v9.28c0,.33-.27.6-.6.6h0ZM18.82,21.96h4.03v-8.08h-4.03v8.08Z"/>
    <path class="cls-1" d="M44.74,23.17h-5.2c-.33,0-.6-.27-.6-.6v-9.28c0-.33.27-.6.6-.6h5.2c.33,0,.6.27.6.6v9.28c0,.33-.27.6-.6.6h0ZM40.15,21.96h3.99v-8.08h-3.99v8.08Z"/>
    <path class="cls-1" d="M48.86,13.89H14.14c-1.22,0-2.21-.99-2.21-2.21v-1.4c0-1.22.99-2.21,2.21-2.21h34.72c1.2,0,2.21,1.01,2.21,2.21v1.4c0,1.2-1.01,2.21-2.21,2.21h0ZM14.14,9.28c-.55,0-1,.45-1,1v1.4c0,.55.45,1,1,1h34.72c.54,0,1-.46,1-1v-1.4c0-.54-.46-1-1-1H14.14Z"/>
    <path class="cls-1" d="M23.46,50.32h-5.23c-.33,0-.6-.27-.6-.6v-9.28c0-.33.27-.6.6-.6h5.23c.33,0,.6.27.6.6v9.28c0,.33-.27.6-.6.6ZM18.82,49.11h4.03v-8.08h-4.03v8.08Z"/>
    <path class="cls-1" d="M44.74,50.32h-5.2c-.33,0-.6-.27-.6-.6v-9.28c0-.33.27-.6.6-.6h5.2c.33,0,.6.27.6.6v9.28c0,.33-.27.6-.6.6ZM40.15,49.11h3.99v-8.08h-3.99v8.08Z"/>
    <path class="cls-1" d="M48.86,54.93H14.14c-1.24,0-2.21-.97-2.21-2.21v-1.36c0-1.26.97-2.24,2.21-2.24h34.72c1.22,0,2.21,1.01,2.21,2.24v1.36c0,1.22-.99,2.21-2.21,2.21h0ZM14.14,50.32c-.56,0-1,.46-1,1.04v1.36c0,.57.43,1,1,1h34.72c.55,0,1-.45,1-1v-1.36c0-.56-.46-1.04-1-1.04H14.14Z"/>
  </g>
</svg>