<?xml version="1.0" encoding="UTF-8"?>
<svg id="Calque_1" data-name="Calque 1" xmlns="http://www.w3.org/2000/svg" viewBox="0 0 63 63">
  <defs>
    <style>
      .cls-1 {
        fill: #ac1268;
        stroke: #ac1268;
        stroke-miterlimit: 10;
        stroke-width: .75px;
      }

      .cls-2 {
        fill: #f7cae0;
      }
    </style>
  </defs>
  <rect class="cls-2" y="0" width="63" height="63" rx="6" ry="6"/>
  <path class="cls-1" d="M45.59,31.39s-.04,0-.05,0c1.09-2.88,1.48-5.67,1.16-8.29-.54-4.39-2.69-7.53-6.07-8.86-2.93-1.15-5.64-1.1-8.05.15-1.91.99-3.6,2.71-5.02,5.12-1.42-2.41-3.11-4.13-5.02-5.12-2.41-1.25-5.12-1.3-8.05-.15-3.38,1.32-5.53,4.47-6.07,8.86-.61,5,1.41,10.7,5.69,16.05,3.67,4.58,8.62,8.37,13.24,10.12.07.03.13.04.2.04s.13-.01.2-.04c3.04-1.16,6.28-3.23,9.21-5.87,1.22,3.59,4.62,6.19,8.61,6.19,5.02,0,9.1-4.08,9.1-9.1s-4.07-9.1-9.09-9.1ZM9.56,23.24c.28-2.29,1.35-6.37,5.36-7.94,6.28-2.47,10.08,1.71,12.15,5.64.1.19.29.3.5.3s.4-.12.5-.3c2.07-3.94,5.86-8.11,12.15-5.64,4.01,1.58,5.08,5.65,5.36,7.94.32,2.59-.12,5.37-1.29,8.26-1.24.18-2.4.61-3.43,1.24h-5.47l-3.14-7.73c-.09-.21-.29-.35-.52-.35h-.01c-.22,0-.42.13-.52.33l-5.5,12.2-3.72-8.41c-.08-.19-.26-.32-.47-.33-.21-.02-.41.08-.52.26l-2.62,4.03h-6.98c-1.55-3.28-2.19-6.53-1.83-9.5ZM27.57,48.13c-4.38-1.72-9.06-5.33-12.56-9.7-1.21-1.51-2.23-3.04-3.04-4.57h6.72c.19,0,.37-.1.47-.26l2.22-3.42,3.81,8.61c.09.21.29.33.52.33h0c.22,0,.42-.13.52-.33l5.48-12.16,2.79,6.86c.09.21.29.35.53.35h4.36c-1.77,1.66-2.88,4.01-2.88,6.62,0,.57.06,1.13.16,1.68-2.87,2.69-6.08,4.8-9.09,5.98ZM45.59,48.45c-4.39,0-7.97-3.58-7.97-7.97s3.58-7.97,7.97-7.97,7.97,3.58,7.97,7.97c0,4.39-3.58,7.97-7.97,7.97ZM49.57,38.07h-1.57v-1.57c0-.6-.49-1.09-1.09-1.09h-2.66c-.6,0-1.09.49-1.09,1.09v1.57h-1.57c-.6,0-1.09.49-1.09,1.09v2.66c0,.6.49,1.09,1.09,1.09h1.57v1.57c0,.6.49,1.09,1.09,1.09h2.66c.6,0,1.09-.49,1.09-1.09v-1.57h1.57c.6,0,1.09-.49,1.09-1.09v-2.66c0-.6-.49-1.09-1.09-1.09ZM49.53,41.77h-2.09c-.31,0-.57.25-.57.57v2.09h-2.57v-2.09c0-.31-.25-.57-.57-.57h-2.09v-2.57h2.09c.31,0,.57-.25.57-.57v-2.09h2.57v2.09c0,.31.25.57.57.57h2.09v2.57Z"/>
</svg>