<?xml version="1.0" encoding="UTF-8"?>
<svg id="Calque_1" data-name="Calque 1" xmlns="http://www.w3.org/2000/svg" viewBox="0 0 63 63">
  <defs>
    <style>
      .cls-1 {
        fill: #374395;
      }

      .cls-2 {
        fill: #a8dcf8;
      }
    </style>
  </defs>
  <rect class="cls-2" x="0" y="0" width="63" height="63" rx="6" ry="6"/>
  <path class="cls-1" d="M41.6,41.26c8.38-4.82,13.34-13.97,13.55-14.36.16-.29.11-.65-.11-.9-1.35-1.51-13.29-14.71-17.53-14.71-1.72,0-2.7.65-3.55,1.22-.76.5-1.35.9-2.46.9s-1.7-.4-2.46-.9c-.86-.57-1.83-1.22-3.55-1.22-4.24,0-16.18,13.21-17.53,14.71-.22.25-.27.61-.11.9.21.39,5.17,9.54,13.55,14.36.12.58.24,1.12.35,1.55,1.03,4.05,3.07,8.73,9.73,8.91h.04c6.66-.19,8.7-4.86,9.73-8.91.11-.44.23-.97.35-1.55h0ZM31.5,26.52c-1.08-.67-3.86-2-7.58-.87-2.08.63-3.2,2.92-3.35,6.79-3.35-2.03-5.64-4.5-6.61-5.66,5.5-3.5,11.55-7.16,12.49-7.37.88-.2,1.18,0,1.79.38.65.41,1.53.98,3.26.98s2.61-.57,3.26-.98c.6-.39.91-.58,1.79-.38.93.21,6.99,3.87,12.49,7.37-.97,1.16-3.26,3.63-6.61,5.66-.15-3.87-1.28-6.16-3.35-6.79-3.72-1.13-6.49.2-7.58.87h0ZM9.52,26.63c4.97-5.5,13.38-13.76,15.97-13.76,1.24,0,1.91.44,2.68.95.82.55,1.75,1.17,3.34,1.17s2.51-.62,3.34-1.17c.77-.51,1.43-.95,2.68-.95,2.6,0,11,8.27,15.97,13.76-1.07,1.83-5.23,8.46-11.51,12.55.21-1.38.42-3.13.46-4.92,5.31-2.95,8.28-7.05,8.41-7.22.13-.18.17-.4.13-.61-.04-.21-.17-.4-.35-.52-2-1.28-12.04-7.67-13.73-8.05-1.53-.35-2.31.15-2.99.58-.59.38-1.14.73-2.41.73s-1.82-.35-2.41-.73c-.69-.44-1.47-.94-2.99-.58-1.69.38-11.73,6.77-13.73,8.05-.18.12-.31.3-.35.52s0,.43.13.61c.13.18,3.11,4.27,8.41,7.22.05,1.78.25,3.53.46,4.92-6.28-4.09-10.44-10.72-11.51-12.55h0ZM31.5,50.14c-5.54-.16-7.22-3.81-8.22-7.72-.13-.49-.27-1.12-.4-1.81-.27-1.39-.72-4.13-.74-6.83-.03-2.21.21-6,2.25-6.62,3.19-.97,5.53.22,6.32.73v9.99c0,.44.35.79.79.79s.79-.35.79-.79v-9.99c.8-.51,3.13-1.7,6.32-.73,2.04.62,2.28,4.41,2.25,6.62-.02,2.69-.47,5.43-.74,6.82-.14.69-.28,1.32-.41,1.82-.99,3.91-2.68,7.56-8.22,7.72h0Z"/>
</svg>