<?xml version="1.0" encoding="UTF-8"?>
<svg id="Calque_1" data-name="Calque 1" xmlns="http://www.w3.org/2000/svg" viewBox="0 0 63 63">
  <defs>
    <style>
      .cls-1 {
        fill: #fcd5ab;
      }

      .cls-2 {
        stroke: #fcd5ab;
        stroke-miterlimit: 10;
        stroke-width: .5px;
      }

      .cls-2, .cls-3 {
        fill: #ee742f;
      }

      .cls-3 {
        font-family: Gilroy-Bold, Gilroy-Bold;
        font-size: 24px;
        font-weight: 700;
      }
    </style>
  </defs>
  <rect class="cls-1" x="0" y="0" width="63" height="63" rx="6" ry="6"/>
  <path class="cls-2" d="M31.5,12.43c-10.88,0-19.98,7.24-19.98,16.53,0,5.01,2.87,9.12,6.97,12.05l-3.22,7.66c-.29.69.03,1.49.72,1.79.38.16.82.14,1.18-.06l9.61-5.25c1.49.23,3.34.35,4.73.35,10.88,0,19.98-7.26,19.98-16.55s-9.1-16.53-19.98-16.53h0ZM31.5,15.16c9.68,0,17.26,6.32,17.26,13.81s-7.57,13.82-17.26,13.82c-1.37,0-3.56-.15-4.74-.37-.31-.06-.63,0-.91.14l-6.57,3.59,2.11-5.04c.26-.61.04-1.31-.51-1.67-4.09-2.61-6.64-6.15-6.64-10.47,0-7.48,7.57-13.81,17.26-13.81Z"/>
  <text class="cls-3" transform="translate(23.21 36)"><tspan x="0" y="0">A</tspan></text>
</svg>